Poster: 
http://imgr.us/images/19slfwt6oklj9nos5q3r.jpeg

Info:

Format : AVI
Format/Info : Audio Video Interleave
File size : 697 MiB
Duration : 2h 19mn
Overall bit rate : 699 Kbps

Video
ID : 0
Format : MPEG-4 Visual
Format profile : Advanced Simple@L5
Format settings, BVOP : 2
Format settings, QPel : No
Format settings, GMC : No warppoints
Format settings, Matrix : Default (H.263)
Codec ID : XVID
Codec ID/Hint : XviD
Duration : 2h 19mn
Bit rate : 498 Kbps
Width : 608 pixels
Height : 272 pixels
Display aspect ratio : 2.25:1
Frame rate : 29.970 fps
Color space : YUV
Chroma subsampling : 4:2:0
Bit depth : 8 bits
Scan type : Progressive
Compression mode : Lossy
Bits/(Pixel*Frame) : 0.100
Stream size : 496 MiB (71%)
Writing library : XviD 1.2.1 (UTC 2008-12-04)



Audio
ID : 1
Format : AC-3
Format/Info : Audio Coding 3
Mode extension : CM (complete main)
Codec ID : 2000
Duration : 2h 19mn
Bit rate mode : Constant
Bit rate : 192 Kbps
Channel(s) : 2 channels
Channel positions : Front: L R
Sampling rate : 48.0 KHz
Bit depth : 16 bits
Compression mode : Lossy
Stream size : 191 MiB (27%)
Alignment : Aligned on interleaves
Interleave, duration : 64 ms (1.92 video frames)
Interleave, preload duration : 192 ms
Title : 26 T01 2_0ch 192Kbps DELAY 0ms

Screens: 
http://imgr.us/images/elqyvie6jahq2nzvz7e1.jpg 
http://imgr.us/images/l3wxhbf6hx1nvf107imx.jpg 
http://imgr.us/images/5rfzadyieqxowql970p6.jpg 
http://imgr.us/images/k2hgzvo80qhpvq6n260.jpg
